<svg width="19" height="9" viewBox="0 0 19 9" fill="none" xmlns="http://www.w3.org/2000/svg">
<path d="M17.5251 0.236554L10.1076 7.15264C9.94572 7.30433 9.72725 7.3894 9.49959 7.3894C9.27193 7.3894 9.05346 7.30433 8.89162 7.15264L1.47406 0.238054C1.31121 0.0864496 1.09203 0.00150013 0.86371 0.00150013C0.635393 0.00150013 0.41621 0.0864496 0.253365 0.238054C0.173174 0.312116 0.109446 0.400634 0.0659313 0.498393C0.0224171 0.596153 0 0.701176 0 0.807271C0 0.913366 0.0224171 1.01839 0.0659313 1.11615C0.109446 1.21391 0.173174 1.30243 0.253365 1.37649L7.66935 8.29107C8.15782 8.74544 8.81503 9 9.49959 9C10.1842 9 10.8414 8.74544 11.3298 8.29107L18.7458 1.37649C18.8263 1.3024 18.8902 1.21379 18.9338 1.11589C18.9775 1.01799 19 0.912797 19 0.80652C19 0.700244 18.9775 0.595047 18.9338 0.497149C18.8902 0.399251 18.8263 0.310638 18.7458 0.236554C18.583 0.0849495 18.3638 0 18.1355 0C17.9072 0 17.688 0.0849495 17.5251 0.236554Z" fill="black"/>
</svg>
